<?xml version="1.0" encoding="UTF-8" standalone="no"?>
<svg
   height="414.89999"
   overflow="scroll"
   width="1120.5"
   version="1.1"
   id="svg12"
   sodipodi:docname="latex_icon_themeblue.svg"
   inkscape:version="1.1.1 (3bf5ae0d25, 2021-09-20)"
   xmlns:inkscape="http://www.inkscape.org/namespaces/inkscape"
   xmlns:sodipodi="http://sodipodi.sourceforge.net/DTD/sodipodi-0.dtd"
   xmlns="http://www.w3.org/2000/svg"
   xmlns:svg="http://www.w3.org/2000/svg">
  <defs
     id="defs16" />
  <sodipodi:namedview
     id="namedview14"
     pagecolor="#ffffff"
     bordercolor="#666666"
     borderopacity="1.0"
     inkscape:pageshadow="2"
     inkscape:pageopacity="0.0"
     inkscape:pagecheckerboard="0"
     showgrid="false"
     inkscape:zoom="0.94083333"
     inkscape:cx="560.14172"
     inkscape:cy="209.92028"
     inkscape:window-width="1920"
     inkscape:window-height="1017"
     inkscape:window-x="3832"
     inkscape:window-y="-8"
     inkscape:window-maximized="1"
     inkscape:current-layer="svg12" />
  <path
     d="m 245.7,198 h -11.25 c -4.5,45.9 -10.8,101.7 -90,101.7 H 108 c -21.15,0 -22.05,-3.15 -22.05,-18 V 42.75 c 0,-15.3 0,-21.6 42.3,-21.6 H 143.1 V 7.65 C 126.9,9 86.4,9 67.95,9 50.4,9 15.3,9 0,7.65 v 13.5 H 10.35 C 45,21.15 45.9,26.1 45.9,42.3 v 236.25 c 0,16.2 -0.9,21.15 -35.55,21.15 H 0 v 13.95 h 233.55 z"
     id="path2"
     style="stroke-width:45" />
  <path
     d="M 238.05,7.2 C 236.25,1.8 235.35,0 229.5,0 c -5.85,0 -7.2,1.8 -9,7.2 l -72.45,183.6 c -3.15,7.65 -8.55,21.6 -36.45,21.6 v 11.25 h 69.75 V 212.4 c -13.95,0 -22.5,-6.3 -22.5,-15.3 0,-2.25 0.45,-3.15 1.35,-6.3 0,0 15.3,-38.7 15.3,-38.7 h 89.1 l 18,45.9 c 0.9,1.8 1.8,4.05 1.8,5.4 0,9 -17.1,9 -25.65,9 v 11.25 H 347.4 V 212.4 h -6.3 c -21.15,0 -23.4,-3.15 -26.55,-12.15 0,0 -76.5,-193.05 -76.5,-193.05 z m -18,31.95 40.05,101.7 H 180 Z"
     id="path4"
     style="stroke-width:45" />
  <path
     d="M 598.5,10.35 H 324.45 c 0,0 -8.1,100.8 -8.1,100.8 h 10.8 c 6.3,-72.45 13.05,-87.3 81,-87.3 8.1,0 19.8,0 24.3,0.9 9.45,1.8 9.45,6.75 9.45,17.1 V 278.1 c 0,15.3 0,21.6 -47.25,21.6 h -18 v 13.95 c 18.45,-1.35 63.9,-1.35 84.6,-1.35 20.7,0 67.05,0 85.5,1.35 V 299.7 h -18 c -47.25,0 -47.25,-6.3 -47.25,-21.6 V 41.85 c 0,-9 0,-15.3 8.1,-17.1 4.95,-0.9 17.1,-0.9 25.65,-0.9 67.5,0 74.25,14.85 80.55,87.3 h 11.25 c 0,0 -8.55,-100.8 -8.55,-100.8 z"
     id="path6"
     style="stroke-width:45" />
  <path
     d="m 839.7,299.25 h -11.25 c -11.25,68.85 -21.6,101.7 -98.55,101.7 h -59.4 c -21.15,0 -22.05,-3.15 -22.05,-18 v -119.7 h 40.05 c 43.65,0 48.6,14.4 48.6,52.65 h 11.25 V 197.1 H 737.1 c 0,38.25 -4.95,52.2 -48.6,52.2 H 648.45 V 141.75 c 0,-14.85 0.9,-18 22.05,-18 h 57.6 c 68.85,0 80.55,24.75 87.75,87.3 h 11.25 l -12.6,-100.8 h -252 v 13.5 h 10.35 c 34.65,0 35.55,4.95 35.55,21.15 v 234.9 c 0,16.2 -0.9,21.15 -35.55,21.15 H 562.5 v 13.95 h 258.3 z"
     id="path8"
     style="stroke-width:45" />
  <path
     d="m 975.15,140.4 61.65,-90 c 9.45,-14.4 24.75,-28.8 64.8,-29.25 V 7.65 H 994.5 v 13.5 c 18,0.45 27.9,10.35 27.9,20.7 0,4.5 -0.9,5.4 -4.05,10.35 0,0 -51.3,75.6 -51.3,75.6 l -57.6,-86.4 c -0.9,-1.35 -3.15,-4.95 -3.15,-6.75 0,-5.4 9.9,-13.05 28.8,-13.5 V 7.65 C 919.8,9 886.95,9 869.85,9 855.9,9 828,8.55 811.35,7.65 v 13.5 h 8.55 c 24.75,0 33.3,3.15 41.85,15.75 0,0 82.35,124.65 82.35,124.65 L 870.75,270 c -6.3,9 -19.8,29.7 -64.8,29.7 v 13.95 h 107.1 V 299.7 c -20.7,-0.45 -28.35,-12.6 -28.35,-20.7 0,-4.05 1.35,-5.85 4.5,-10.8 l 63.45,-94.05 71.1,107.1 c 0.9,1.8 2.25,3.6 2.25,4.95 0,5.4 -9.9,13.05 -29.25,13.5 v 13.95 c 15.75,-1.35 48.6,-1.35 65.25,-1.35 18.9,0 39.6,0.45 58.5,1.35 V 299.7 h -8.55 c -23.4,0 -32.85,-2.25 -42.3,-16.2 0,0 -94.5,-143.1 -94.5,-143.1 z"
     id="path10"
     style="stroke-width:45" />
  <path
     style="fill:#1565c0;stroke-width:1.06289"
     d="m 0.53144376,306.64305 v -6.90877 H 14.296665 c 16.637927,0 23.559753,-1.31681 28.060754,-5.33828 l 3.346744,-2.99019 0.278295,-129.30674 C 46.292123,18.217092 46.750832,27.509124 39.160498,23.907275 35.733148,22.280891 17.531668,20.317381 5.0487157,20.227418 l -4.51727194,-0.03255 5.782e-5,-5.58016 5.782e-5,-5.5801592 H 71.745008 142.95846 l -5e-5,5.4208422 -4e-5,5.420841 -18.85013,0.75551 c -27.168761,1.088919 -34.898293,3.234644 -37.388895,10.379194 -0.809263,2.32145 -1.1569,41.932824 -1.1569,131.822254 0,143.05293 -0.500102,133.58944 7.180682,135.88105 2.712239,0.8092 15.150083,1.05525 39.054923,0.77256 32.01429,-0.3786 35.81734,-0.61772 43.57839,-2.74009 21.4856,-5.87551 36.49698,-17.84546 45.57266,-36.33927 2.72538,-5.55359 6.11934,-14.73361 7.54216,-20.40005 2.67611,-10.65784 5.87544,-31.1123 5.87544,-37.56386 v -3.68357 h 5.31443 c 2.92294,0 5.31443,0.11958 5.31441,0.26573 -1e-5,0.14614 -2.63065,25.37644 -5.84585,56.06731 -3.2152,30.69088 -5.84584,56.39947 -5.84585,57.13021 -2e-5,1.0548 -23.98587,1.32861 -116.38621,1.32861 H 0.53144376 Z"
     id="path878" />
  <path
     style="fill:#1565c0;stroke-width:1.06289"
     d="m 112.13463,218.0461 v -5.16029 l 7.34697,-0.61594 c 9.77343,-0.81937 17.23887,-4.16295 22.40884,-10.03634 3.42244,-3.88809 6.53938,-10.74173 17.45542,-38.38155 7.30896,-18.50655 24.49753,-62.0395 38.19683,-96.7399 13.69931,-34.700402 25.62111,-63.8049193 26.4929,-64.6767051 1.82587,-1.82587896 8.93677,-2.12909217 10.6133,-0.4525584 0.62288,0.6228786 19.10915,46.5011575 41.08061,101.9517335 21.97144,55.45058 40.66554,101.88156 41.54242,103.17998 2.42524,3.59108 8.94944,5.36422 19.92914,5.41632 l 9.83171,0.0466 v 5.31444 5.31444 h -44.10983 -44.10983 v -5.31444 -5.31444 h 6.4381 c 12.69281,0 19.53241,-3.30091 19.26381,-9.29706 -0.0721,-1.60939 -4.39626,-13.68788 -9.60925,-26.84111 l -9.47817,-23.91497 h -45.4077 -45.40769 l -7.93293,20.19486 c -8.60214,21.89847 -9.60525,27.33739 -5.94586,32.23874 2.78602,3.73158 9.13446,6.79898 15.29701,7.39113 l 5.19189,0.49887 v 5.17921 5.17921 h -34.54384 -34.54385 z m 146.1869,-83.32511 c -1.84034,-4.84737 -31.97991,-81.371508 -37.51282,-95.244772 -0.82933,-2.079485 -0.24903,-3.436181 -19.71264,46.086227 -9.64985,24.552705 -18.54044,47.152345 -19.75685,50.221435 l -2.21166,5.58016 h 40.85803 40.85803 z"
     id="path917" />
  <path
     style="fill:#1565c0;stroke-width:1.06289"
     d="m 562.79894,408.31388 v -6.21226 l 15.1991,-0.69062 c 18.65593,-0.84769 25.51468,-2.63314 28.43212,-7.40137 2.03784,-3.33061 2.07398,-5.98053 1.81043,-132.71955 l -0.26893,-129.32106 -2.41643,-2.57202 c -3.76517,-4.00762 -9.0634,-5.16494 -26.54726,-5.79889 l -16.20903,-0.58773 v -6.23503 -6.23505 h 16.47475 16.47476 v -4.01756 c 0,-6.4985 -3.10671,-29.703325 -5.35733,-40.015279 -5.37277,-24.617187 -16.27979,-35.905993 -39.28395,-40.659051 -7.17801,-1.483104 -14.50362,-1.873552 -35.64916,-1.900067 -23.8844,-0.02995 -26.91497,0.163138 -29.54256,1.882267 -1.61038,1.053602 -3.39059,3.132448 -3.95603,4.619656 -0.64716,1.702182 -0.92493,50.089949 -0.74972,130.601834 0.27789,127.6874 0.28198,127.90276 2.49104,130.8985 4.216,5.71741 10.78247,7.02445 37.91131,7.5461 l 24.18069,0.46496 10e-4,6.52936 0.001,6.52935 -29.49616,-0.85068 c -29.99326,-0.86501 -135.0499,-0.10003 -137.92783,1.00433 -1.29626,0.49742 -1.5772,-0.64564 -1.5772,-6.41725 v -7.02249 l 20.46059,-0.009 c 30.83883,-0.0121 41.27169,-2.53186 44.04984,-10.63894 1.829,-5.33732 1.829,-252.905704 0,-258.251112 -2.06447,-6.03355 -4.99289,-6.832713 -26.66091,-7.275695 -48.05656,-0.981997 -68.05563,6.076271 -77.29505,27.280211 -4.13797,9.496382 -7.64097,27.791794 -10.05701,52.525566 l -0.70082,7.17449 h -4.65917 c -4.12415,0 -4.65878,-0.27462 -4.65577,-2.3915 0.002,-1.31532 1.67577,-22.958366 3.71979,-48.095656 2.04401,-25.137289 3.71653,-46.541187 3.71671,-47.564216 3e-4,-1.761822 7.20925,-1.860053 136.50487,-1.860053 h 136.50457 l 0.64713,5.58016 c 0.58243,5.022273 7.99365,91.619455 8.00446,93.528865 0.002,0.43556 46.74617,0.91386 103.8749,1.06289 l 103.87043,0.27095 6.08904,48.36139 c 3.34896,26.59876 6.11126,48.95925 6.13843,49.68999 0.0328,0.88336 -1.64271,1.32861 -4.99985,1.32861 h -5.04922 l -1.90858,-13.7143 c -7.02708,-50.49397 -22.91528,-68.06292 -65.51539,-72.44596 -6.73941,-0.6934 -27.66488,-1.01732 -52.33939,-0.81018 -39.76547,0.33382 -41.20803,0.41781 -44.08454,2.5667 -1.63559,1.22187 -3.29624,3.37422 -3.69033,4.78299 -0.39408,1.40878 -0.7642,28.74829 -0.82246,60.75449 l -0.10595,58.1931 26.30646,-0.0371 c 29.57476,-0.0417 39.55908,-1.2652 48.05393,-5.88867 10.0623,-5.47657 14.92216,-17.37496 14.92216,-36.53384 v -9.62188 h 5.31444 5.31443 v 58.99025 58.99026 h -5.31443 -5.31444 v -9.37078 c 0,-17.51157 -3.6464,-28.79988 -11.35577,-35.15461 -8.20564,-6.76378 -19.32062,-8.53945 -53.74609,-8.58616 l -24.18069,-0.0328 v 64.14609 c 0,44.20566 0.36623,65.19664 1.17812,67.52564 2.36748,6.79137 3.62834,6.99577 45.55838,7.38567 54.92571,0.51075 72.74426,-1.45784 90.06208,-9.95002 13.56311,-6.65098 23.39609,-17.59731 30.24862,-33.67353 3.11043,-7.29717 9.33333,-29.94091 10.96466,-39.89798 l 0.7401,-4.51727 h -10.19086 -10.19086 v -6.75422 -6.7542 l 10.36315,-0.62138 c 19.53431,-1.17127 34.51321,-7.12736 45.29767,-18.01178 4.53383,-4.57586 18.28009,-23.96594 44.01687,-62.08892 20.5833,-30.48931 37.68968,-56.12699 38.01418,-56.97262 0.58605,-1.52724 -77.59697,-120.989994 -85.29571,-130.330842 -6.20797,-7.532124 -12.36581,-9.71043 -31.21221,-11.041183 l -15.86952,-1.120553 -3e-5,-5.410789 -2e-5,-5.4107892 h 61.64724 61.64726 l 2.5e-4,5.5599092 c 2.8e-4,6.131321 0.40676,5.82331 -9.4558,7.16528 -10.6671,1.451443 -19.24191,7.312806 -19.24191,13.152939 0,3.328807 60.3094,94.447558 61.57638,93.032988 0.45843,-0.51184 12.90763,-18.7735 27.66489,-40.581478 29.3774,-43.413363 29.6109,-43.888744 25.7958,-52.513415 -3.2455,-7.336988 -10.2416,-11.936542 -20.4401,-13.438164 l -4.78297,-0.704247 -0.31876,-6.102628 -0.31877,-6.1026279 h 52.6659 52.666 v 5.8256309 c 0,6.690694 0.4808,6.412963 -12.7546,7.368558 -16.5088,1.191933 -32.0758,7.463189 -41.9605,16.903953 -7.3009,6.973158 -71.13834,99.972678 -70.4199,102.589108 0.93363,3.40009 94.572,144.23608 98.834,148.65045 7.1616,7.41762 12.637,9.1687 30.2868,9.68597 l 15.1462,0.4439 v 6.8622 c 0,6.03369 -0.2246,6.79663 -1.8601,6.31919 -3.6147,-1.05524 -77.619,-1.77211 -98.8496,-0.95754 l -21.52445,0.82585 10e-4,-6.64304 0.001,-6.64305 3.98585,-0.0127 c 5.8664,-0.0186 14.7951,-2.66125 19.4911,-5.76893 4.4741,-2.96081 6.1102,-6.83838 4.4329,-10.50587 -0.5818,-1.27221 -17.1622,-26.63857 -36.84515,-56.36969 l -35.78728,-54.05657 -7.18663,10.47818 c -30.06954,43.84177 -60.08071,89.38047 -60.92922,92.45352 -2.83928,10.28299 8.23919,22.05976 22.09717,23.49003 l 5.71026,0.58935 v 6.76006 6.76007 h -37.71226 -37.71226 l -0.55669,2.3915 c -0.30617,1.31532 -3.89745,22.95837 -7.98061,48.09566 -4.08316,25.13729 -7.67727,46.78034 -7.98691,48.09566 l -0.56298,2.39153 H 691.38808 562.79894 Z"
     id="path956" />
</svg>
