<?xml version="1.0" encoding="UTF-8" standalone="no"?>
<svg
   viewBox="0 0 28 25.400459"
   version="1.1"
   id="svg44"
   sodipodi:docname="matlab_icon.svg"
   width="28"
   height="25.400459"
   inkscape:version="1.1.1 (3bf5ae0d25, 2021-09-20)"
   xmlns:inkscape="http://www.inkscape.org/namespaces/inkscape"
   xmlns:sodipodi="http://sodipodi.sourceforge.net/DTD/sodipodi-0.dtd"
   xmlns="http://www.w3.org/2000/svg"
   xmlns:svg="http://www.w3.org/2000/svg">
  <sodipodi:namedview
     id="namedview46"
     pagecolor="#ffffff"
     bordercolor="#666666"
     borderopacity="1.0"
     inkscape:pageshadow="2"
     inkscape:pageopacity="0.0"
     inkscape:pagecheckerboard="0"
     showgrid="false"
     inkscape:zoom="26"
     inkscape:cx="14"
     inkscape:cy="12.711538"
     inkscape:window-width="1920"
     inkscape:window-height="1017"
     inkscape:window-x="3832"
     inkscape:window-y="-8"
     inkscape:window-maximized="1"
     inkscape:current-layer="svg44" />
  <defs
     id="defs34">
    <linearGradient
       id="a"
       x1="16.802999"
       y1="16.631001"
       x2="15.013"
       y2="22.410999"
       gradientTransform="matrix(1,0,0,-1,-2,28.7)"
       gradientUnits="userSpaceOnUse">
      <stop
         offset="0"
         stop-color="#512"
         id="stop2" />
      <stop
         offset="0.23"
         stop-color="#523"
         id="stop4" />
      <stop
         offset="0.36"
         stop-color="#534"
         id="stop6" />
      <stop
         offset="0.51"
         stop-color="#645"
         id="stop8" />
      <stop
         offset="0.66"
         stop-color="#568"
         id="stop10" />
      <stop
         offset="0.84"
         stop-color="#29d"
         id="stop12" />
    </linearGradient>
    <linearGradient
       id="b"
       x1="29.709999"
       y1="18.983"
       x2="11.71"
       y2="14.563"
       gradientUnits="userSpaceOnUse"
       gradientTransform="translate(-2,-3.3)">
      <stop
         offset="0.081"
         stop-color="#c33"
         id="stop15" />
      <stop
         offset="0.189"
         stop-color="#de5239"
         id="stop17" />
      <stop
         offset="0.313"
         stop-color="#f06e3e"
         id="stop19" />
      <stop
         offset="0.421"
         stop-color="#fa8042"
         id="stop21" />
      <stop
         offset="0.5"
         stop-color="#fe8643"
         id="stop23" />
      <stop
         offset="0.58"
         stop-color="#fa7f42"
         id="stop25" />
      <stop
         offset="0.696"
         stop-color="#ef6c3e"
         id="stop27" />
      <stop
         offset="0.833"
         stop-color="#dc4c37"
         id="stop29" />
      <stop
         offset="0.916"
         stop-color="#cf3633"
         id="stop31" />
    </linearGradient>
  </defs>
  <title
     id="title36">file_type_matlab</title>
  <path
     d="m 0,14.25 7.97,-3.22 a 20.7,20.7 0 0 1 2.72,-2.95 c 0.66,-0.35 1.9,-0.16 4.17,-2.98 2.2,-2.75 2.9,-5.1 3.93,-5.1 1.63,0 2.83,3.52 4.65,8.85 A 115.629,115.629 0 0 0 28,20.82 c -1.9,-1.77 -3.52,-3.68 -5.37,-3.63 -1.72,0.04 -3.63,2.08 -5.72,4.7 -1.66,2.1 -3.86,3.54 -4.72,3.51 0,0 -2.22,-6.28 -4.08,-7.3 A 2.641,2.641 0 0 0 5.72,18.3 L 0,14.24 Z"
     style="fill:#4499dd"
     id="path38" />
  <path
     d="m 17.8,0.72 c -0.67,0.9 -1.48,2.55 -2.94,4.38 -2.27,2.82 -3.5,2.63 -4.17,2.98 a 19.674,19.674 0 0 0 -2.72,2.95 l 3.3,2.41 C 14.07,9.62 15.57,5.48 16.74,2.8 A 13.579,13.579 0 0 1 17.8,0.72 Z"
     style="fill:url(#a)"
     id="path40" />
  <path
     d="m 18.8,0 c -2.18,0 -3.67,11.48 -11.72,17.89 2.26,-0.37 4.22,5.24 5.12,7.51 4,-0.68 7.2,-8.33 10.43,-8.21 1.85,0.07 3.47,1.86 5.37,3.63 C 23.66,11.7 21.63,0 18.8,0 Z"
     style="fill:url(#b)"
     id="path42" />
</svg>
