<?xml version="1.0" encoding="UTF-8" standalone="no"?>
<svg
   version="1.1"
   width="512"
   height="467.80603"
   id="svg4"
   sodipodi:docname="matlab_icon_themeblue.svg"
   inkscape:version="1.1.1 (3bf5ae0d25, 2021-09-20)"
   xmlns:inkscape="http://www.inkscape.org/namespaces/inkscape"
   xmlns:sodipodi="http://sodipodi.sourceforge.net/DTD/sodipodi-0.dtd"
   xmlns="http://www.w3.org/2000/svg"
   xmlns:svg="http://www.w3.org/2000/svg">
  <defs
     id="defs8" />
  <sodipodi:namedview
     id="namedview6"
     pagecolor="#ffffff"
     bordercolor="#666666"
     borderopacity="1.0"
     inkscape:pageshadow="2"
     inkscape:pageopacity="0.0"
     inkscape:pagecheckerboard="0"
     showgrid="false"
     inkscape:zoom="1.625"
     inkscape:cx="256"
     inkscape:cy="234.15385"
     inkscape:window-width="1920"
     inkscape:window-height="1017"
     inkscape:window-x="3832"
     inkscape:window-y="-8"
     inkscape:window-maximized="1"
     inkscape:current-layer="svg4" />
  <path
     d="M 495.85495,345.50727 C 466.8746,272.32981 442.81836,197.27558 415.12967,123.61376 402.8999,92.251905 390.93228,60.627693 374.26248,31.284218 367.64294,20.749382 361.306,9.1653232 350.44843,2.4248312 c -2.73945,-1.74073805 -5.8285,-2.47979905 -8.87958,-2.42166105 -5.08524,0.09657 -10.14118,2.37115805 -14.02616,5.65062305 -14.57086,11.5436558 -23.20852,28.3346518 -32.89541,43.7936098 -17.11395,28.697782 -35.15595,58.747807 -63.77317,77.395327 -13.44058,9.48511 -31.03889,10.51439 -43.99513,20.68585 -17.71927,13.36002 -29.76745,32.31031 -44.29815,48.73793 -3.30951,3.95546 -8.43566,5.52967 -12.91585,7.66877 C 86.3153,221.61413 42.945664,239.25257 0,257.81955 c 36.366531,28.13263 75.114815,53.15754 112.20809,80.32151 10.17146,-2.01813 20.38308,-6.19556 30.87727,-4.33905 16.62964,5.20694 26.37713,21.15023 34.00572,35.7211 15.49913,31.76538 26.69986,65.30673 39.25258,98.28293 20.98862,-1.49341 39.87829,-12.31055 56.10415,-25.02488 31.24067,-25.30722 55.03428,-58.0011 81.22983,-88.19229 12.55274,-13.19867 25.3476,-28.91974 44.1969,-32.59286 19.0513,-4.60141 39.45456,2.21988 53.58148,15.33774 19.81797,17.71926 37.37586,38.20333 60.54398,51.76513 -3.108,-15.33774 -10.57498,-29.10129 -16.14505,-43.59161 z m -324.0112,-51.56336 c -18.28415,10.81742 -37.69858,19.7172 -56.70946,29.16214 C 85.306236,303.1265 56.245331,281.95633 26.942009,261.25028 66.456943,243.93479 106.57742,227.85009 146.61709,211.70502 c 18.97049,14.81328 38.54652,28.87961 57.51677,43.69263 -8.91999,14.24811 -19.65658,27.48694 -32.29011,38.54626 z m 40.66541,-49.64599 c -18.84929,-14.16733 -37.94074,-27.95108 -56.5077,-42.48154 11.90703,-16.22586 24.94408,-31.90678 40.5644,-44.70167 10.33284,-6.61954 22.96635,-8.45611 33.70295,-14.42969 25.46883,-12.71434 42.8449,-36.04381 59.43389,-58.324085 -21.27094,55.216085 -43.97492,110.654345 -77.19354,159.936985 z"
     id="path2" />
  <path
     style="fill:#1565c0;stroke-width:0.615385"
     d="m 205.91312,438.85348 c -12.75405,-34.13402 -19.75932,-51.24203 -27.09946,-66.18123 -7.02847,-14.30486 -11.68746,-21.3525 -18.75064,-28.36405 -4.592,-4.55843 -6.65104,-6.09738 -11.11534,-8.3077 -5.46537,-2.70597 -5.49584,-2.71275 -11.98272,-2.66704 -5.14241,0.0362 -8.18764,0.46111 -14.55119,2.03025 -4.42627,1.09144 -8.58012,2.02164 -9.23077,2.06711 -0.65065,0.0455 -5.61377,-3.10691 -11.02915,-7.00528 C 96.738462,326.52717 80.676923,315.21356 66.461538,305.28419 26.375406,277.28424 0.39217169,258.29336 1.3699148,257.70938 3.7047866,256.31484 64.666252,230.85103 107.69231,213.29816 c 12.18461,-4.97082 24.36923,-10.07396 27.07692,-11.34032 5.5977,-2.61797 7.4371,-4.3608 16.94441,-16.05482 18.78471,-23.10523 23.00044,-27.75058 31.90584,-35.15733 6.9045,-5.74257 13.33072,-9.1588 25.3036,-13.4516 4.90769,-1.75962 11.41538,-4.39244 14.46154,-5.85071 8.24023,-3.94482 18.49945,-11.67497 27.73206,-20.89562 14.11866,-14.100405 21.8852,-24.811925 42.37062,-58.437014 6.99277,-11.478056 14.47411,-23.385748 16.62519,-26.461538 14.73695,-21.0720578 27.6355,-28.9329158 38.64024,-23.5488008 14.76326,7.222993 32.3724,37.2932388 55.25845,94.3621178 12.47213,31.100655 17.95166,45.978695 43.36622,117.748185 30.8669,87.16659 42.28512,117.83399 55.63178,149.41735 5.1755,12.24726 8.97309,24.12111 7.71459,24.12111 -0.19423,0 -3.17115,-1.9184 -6.61538,-4.26313 -8.15181,-5.54949 -15.97693,-12.11849 -28.14365,-23.62594 -29.2135,-27.63051 -30.43846,-28.66312 -39.10938,-32.9683 -13.25497,-6.5812 -26.36601,-8.16051 -40.23998,-4.84717 -16.93204,4.04366 -27.43229,13.26236 -61.53716,54.0266 -22.01394,26.31241 -27.06679,32.02711 -39.34785,44.50177 -19.46171,19.76852 -31.97074,29.56632 -48.08281,37.66125 -9.56443,4.80531 -18.09704,7.56299 -27.03218,8.73661 l -4,0.5254 z M 135.19383,313.62424 c 10.59724,-5.23025 23.34704,-11.77437 28.33288,-14.54248 8.75394,-4.86012 9.33567,-5.31009 16.94368,-13.10584 8.17167,-8.37329 14.30476,-15.88227 20.58235,-25.1997 3.13059,-4.64654 3.52816,-5.53879 2.74212,-6.15385 -2.70134,-2.11371 -55.43626,-42.0584 -56.30514,-42.64899 -0.83509,-0.56763 -6.11326,1.36802 -28.1051,10.30693 -48.146946,19.57003 -91.039041,37.5664 -92.214531,38.69073 -0.448545,0.42903 13.115771,10.29978 50.06068,36.42914 17.31752,12.24786 37.195101,25.73361 37.930531,25.73361 0.42066,0 9.4353,-4.2793 20.03253,-9.50955 z m 81.8781,-75.66281 c 21.84118,-33.66176 39.75233,-69.99581 62.06562,-125.90456 11.80567,-29.580595 11.14518,-27.841025 10.47778,-27.595725 -0.31591,0.1161 -3.41001,3.94956 -6.87577,8.51879 -9.43982,12.445365 -16.86929,21.051075 -24.98262,28.937895 -13.83889,13.45253 -24.25786,20.0051 -42.06463,26.4548 -10.92569,3.95734 -15.69947,6.07187 -19.29909,8.54846 -3.96149,2.72559 -15.51763,13.9505 -22.18417,21.54833 C 166.93846,186.75568 156,200.72052 156,201.71644 c 0,0.78827 55.21445,42.57803 56.30769,42.61718 0.33846,0.0121 2.48237,-2.85536 4.76424,-6.37219 z"
     id="path862" />
</svg>
